HIERARCHY
ROOT Hips
{
	OFFSET 0.053599 88.859886 3.107447
	CHANNELS 6 Xposition Yposition Zposition Zrotation Yrotation Xrotation 
	JOINT Spine
	{
		OFFSET -0.000000 8.814246 -2.080107
		CHANNELS 3 Zrotation Yrotation Xrotation
		JOINT Spine1
		{
			OFFSET 0.000000 8.844141 0.000000
			CHANNELS 3 Zrotation Yrotation Xrotation
			JOINT Spine2
			{
				OFFSET -0.000000 11.682268 0.000000
				CHANNELS 3 Zrotation Yrotation Xrotation
				JOINT Spine3
				{
					OFFSET 0.000000 11.746700 0.000000
					CHANNELS 3 Zrotation Yrotation Xrotation
					JOINT Neck
					{
						OFFSET -0.000000 17.658264 -0.000000
						CHANNELS 3 Zrotation Yrotation Xrotation
						JOINT Neck1
						{
							OFFSET -0.000000 5.101515 -0.000000
							CHANNELS 3 Zrotation Yrotation Xrotation
							JOINT Head
							{
								OFFSET 0.000000 5.101515 0.000000
								CHANNELS 3 Zrotation Yrotation Xrotation
								JOINT HeadEnd
								{
									OFFSET 0.000000 11.655085 0.000000
									CHANNELS 3 Zrotation Yrotation Xrotation
									End Site
									{
										OFFSET 0.000000 0.000000 0.000000
									}
								}
							}
						}
					}
					JOINT RightShoulder
					{
						OFFSET -2.625389 11.175210 0.000000
						CHANNELS 3 Zrotation Yrotation Xrotation
						JOINT RightArm
						{
							OFFSET -0.000000 10.434715 -0.000000
							CHANNELS 3 Zrotation Yrotation Xrotation
							JOINT RightForeArm
							{
								OFFSET -0.000000 29.628420 0.000000
								CHANNELS 3 Zrotation Yrotation Xrotation
								JOINT RightHand
								{
									OFFSET -0.000000 22.857611 0.000000
									CHANNELS 3 Zrotation Yrotation Xrotation
									JOINT RightHandThumb1
									{
										OFFSET -2.867323 3.959563 2.944291
										CHANNELS 3 Zrotation Yrotation Xrotation
										JOINT RightHandThumb2
										{
											OFFSET 0.000000 3.350399 0.000000
											CHANNELS 3 Zrotation Yrotation Xrotation
											JOINT RightHandThumb3
											{
												OFFSET 0.000000 3.756509 -0.000000
												CHANNELS 3 Zrotation Yrotation Xrotation
												JOINT RightHandThumb4
												{
													OFFSET 0.000000 3.147345 0.000000
													CHANNELS 3 Zrotation Yrotation Xrotation
													End Site
													{
														OFFSET 0.000000 0.000000 0.000000
													}
												}
											}
										}
									}
									JOINT RightHandIndex1
									{
										OFFSET -0.086752 10.030893 2.345280
										CHANNELS 3 Zrotation Yrotation Xrotation
										JOINT RightHandIndex2
										{
											OFFSET -0.000000 4.061090 0.000000
											CHANNELS 3 Zrotation Yrotation Xrotation
											JOINT RightHandIndex3
											{
												OFFSET -0.000000 3.248873 0.000000
												CHANNELS 3 Zrotation Yrotation Xrotation
												JOINT RightHandIndex4
												{
													OFFSET 0.000000 2.639709 -0.000000
													CHANNELS 3 Zrotation Yrotation Xrotation
													End Site
													{
														OFFSET 0.000000 0.000000 0.000000
													}
												}
											}
										}
									}
									JOINT RightHandMiddle1
									{
										OFFSET 0.104102 9.502952 0.006768
										CHANNELS 3 Zrotation Yrotation Xrotation
										JOINT RightHandMiddle2
										{
											OFFSET 0.000000 4.568727 0.000000
											CHANNELS 3 Zrotation Yrotation Xrotation
											JOINT RightHandMiddle3
											{
												OFFSET 0.000000 3.654981 -0.000000
												CHANNELS 3 Zrotation Yrotation Xrotation
												JOINT RightHandMiddle4
												{
													OFFSET -0.000000 2.741236 -0.000000
													CHANNELS 3 Zrotation Yrotation Xrotation
													End Site
													{
														OFFSET 0.000000 0.000000 0.000000
													}
												}
											}
										}
									}
									JOINT RightHandRing1
									{
										OFFSET 0.086752 8.921708 -2.267442
										CHANNELS 3 Zrotation Yrotation Xrotation
										JOINT RightHandRing2
										{
											OFFSET -0.000000 4.061090 0.000000
											CHANNELS 3 Zrotation Yrotation Xrotation
											JOINT RightHandRing3
											{
												OFFSET 0.000000 3.654981 -0.000000
												CHANNELS 3 Zrotation Yrotation Xrotation
												JOINT RightHandRing4
												{
													OFFSET 0.000000 2.741236 -0.000000
													CHANNELS 3 Zrotation Yrotation Xrotation
													End Site
													{
														OFFSET 0.000000 0.000000 0.000000
													}
												}
											}
										}
									}
									JOINT RightHandPinky1
									{
										OFFSET -0.173504 7.976997 -4.467199
										CHANNELS 3 Zrotation Yrotation Xrotation
										JOINT RightHandPinky2
										{
											OFFSET 0.000000 3.350399 -0.000000
											CHANNELS 3 Zrotation Yrotation Xrotation
											JOINT RightHandPinky3
											{
												OFFSET -0.000000 2.842763 0.000000
												CHANNELS 3 Zrotation Yrotation Xrotation
												JOINT RightHandPinky4
												{
													OFFSET -0.000000 2.639709 0.000000
													CHANNELS 3 Zrotation Yrotation Xrotation
													End Site
													{
														OFFSET 0.000000 0.000000 0.000000
													}
												}
											}
										}
									}
									JOINT RightForeArmEnd
									{
										OFFSET 0.000000 0.000000 0.000000
										CHANNELS 3 Zrotation Yrotation Xrotation
										End Site
										{
											OFFSET 0.000000 0.000000 0.000000
										}
									}
								}
								JOINT RightArmEnd
								{
									OFFSET 0.000000 0.000000 0.000000
									CHANNELS 3 Zrotation Yrotation Xrotation
									End Site
									{
										OFFSET 0.000000 0.000000 0.000000
									}
								}
							}
						}
					}
					JOINT LeftShoulder
					{
						OFFSET 2.625389 11.175210 0.000000
						CHANNELS 3 Zrotation Yrotation Xrotation
						JOINT LeftArm
						{
							OFFSET 0.000000 10.813635 -0.000000
							CHANNELS 3 Zrotation Yrotation Xrotation
							JOINT LeftForeArm
							{
								OFFSET 0.000000 28.724781 0.000000
								CHANNELS 3 Zrotation Yrotation Xrotation
								JOINT LeftHand
								{
									OFFSET 0.644384 25.716167 -0.328871
									CHANNELS 3 Zrotation Yrotation Xrotation
									JOINT LeftHandThumb1
									{
										OFFSET 2.867323 3.959563 2.944291
										CHANNELS 3 Zrotation Yrotation Xrotation
										JOINT LeftHandThumb2
										{
											OFFSET 0.000000 3.350399 0.000000
											CHANNELS 3 Zrotation Yrotation Xrotation
											JOINT LeftHandThumb3
											{
												OFFSET -0.000000 3.756509 0.000000
												CHANNELS 3 Zrotation Yrotation Xrotation
												JOINT LeftHandThumb4
												{
													OFFSET -0.000000 3.100000 0.000000
													CHANNELS 3 Zrotation Yrotation Xrotation
													End Site
													{
														OFFSET 0.000000 0.000000 0.000000
													}
												}
											}
										}
									}
									JOINT LeftHandIndex1
									{
										OFFSET 0.086752 10.030893 2.345280
										CHANNELS 3 Zrotation Yrotation Xrotation
										JOINT LeftHandIndex2
										{
											OFFSET -0.000000 4.061090 -0.000000
											CHANNELS 3 Zrotation Yrotation Xrotation
											JOINT LeftHandIndex3
											{
												OFFSET 0.000000 3.248873 -0.000000
												CHANNELS 3 Zrotation Yrotation Xrotation
												JOINT LeftHandIndex4
												{
													OFFSET 0.000000 2.639709 -0.000000
													CHANNELS 3 Zrotation Yrotation Xrotation
													End Site
													{
														OFFSET 0.000000 0.000000 0.000000
													}
												}
											}
										}
									}
									JOINT LeftHandMiddle1
									{
										OFFSET -0.104102 9.502952 0.006768
										CHANNELS 3 Zrotation Yrotation Xrotation
										JOINT LeftHandMiddle2
										{
											OFFSET -0.000000 4.568727 -0.000000
											CHANNELS 3 Zrotation Yrotation Xrotation
											JOINT LeftHandMiddle3
											{
												OFFSET 0.000000 3.654981 0.000000
												CHANNELS 3 Zrotation Yrotation Xrotation
												JOINT LeftHandMiddle4
												{
													OFFSET 0.000000 2.741236 -0.000000
													CHANNELS 3 Zrotation Yrotation Xrotation
													End Site
													{
														OFFSET 0.000000 0.000000 0.000000
													}
												}
											}
										}
									}
									JOINT LeftHandRing1
									{
										OFFSET -0.086752 8.921708 -2.267442
										CHANNELS 3 Zrotation Yrotation Xrotation
										JOINT LeftHandRing2
										{
											OFFSET 0.000000 4.061090 0.000000
											CHANNELS 3 Zrotation Yrotation Xrotation
											JOINT LeftHandRing3
											{
												OFFSET 0.000000 3.654981 0.000000
												CHANNELS 3 Zrotation Yrotation Xrotation
												JOINT LeftHandRing4
												{
													OFFSET 0.000000 2.741236 0.000000
													CHANNELS 3 Zrotation Yrotation Xrotation
													End Site
													{
														OFFSET 0.000000 0.000000 0.000000
													}
												}
											}
										}
									}
									JOINT LeftHandPinky1
									{
										OFFSET 0.173504 7.976997 -4.467199
										CHANNELS 3 Zrotation Yrotation Xrotation
										JOINT LeftHandPinky2
										{
											OFFSET -0.000000 3.350399 -0.000000
											CHANNELS 3 Zrotation Yrotation Xrotation
											JOINT LeftHandPinky3
											{
												OFFSET 0.000000 2.842763 0.000000
												CHANNELS 3 Zrotation Yrotation Xrotation
												JOINT LeftHandPinky4
												{
													OFFSET -0.000000 2.639709 -0.000000
													CHANNELS 3 Zrotation Yrotation Xrotation
													End Site
													{
														OFFSET 0.000000 0.000000 0.000000
													}
												}
											}
										}
									}
									JOINT LeftForeArmEnd
									{
										OFFSET 0.000000 0.000000 0.000000
										CHANNELS 3 Zrotation Yrotation Xrotation
										End Site
										{
											OFFSET 0.000000 0.000000 0.000000
										}
									}
								}
								JOINT LeftArmEnd
								{
									OFFSET 0.000000 0.000000 0.000000
									CHANNELS 3 Zrotation Yrotation Xrotation
									End Site
									{
										OFFSET 0.000000 0.000000 0.000000
									}
								}
							}
						}
					}
				}
			}
		}
	}
	JOINT RightUpLeg
	{
		OFFSET -11.289943 0.000000 0.000000
		CHANNELS 3 Zrotation Yrotation Xrotation
		JOINT RightLeg
		{
			OFFSET 0.000000 -38.200325 0.000000
			CHANNELS 3 Zrotation Yrotation Xrotation
			JOINT RightFoot
			{
				OFFSET -0.000000 -39.900856 -0.000000
				CHANNELS 3 Zrotation Yrotation Xrotation
				JOINT RightToeBase
				{
					OFFSET 0.000000 0.000000 15.261641
					CHANNELS 3 Zrotation Yrotation Xrotation
					JOINT RightToeBaseEnd
					{
						OFFSET 0.000000 0.000000 7.370709
						CHANNELS 3 Zrotation Yrotation Xrotation
						End Site
						{
							OFFSET 0.000000 0.000000 0.000000
						}
					}
				}
				JOINT RightLegEnd
				{
					OFFSET 0.000000 0.000000 0.000000
					CHANNELS 3 Zrotation Yrotation Xrotation
					End Site
					{
						OFFSET 0.000000 0.000000 0.000000
					}
				}
			}
			JOINT RightUpLegEnd
			{
				OFFSET 0.000000 0.000000 0.000000
				CHANNELS 3 Zrotation Yrotation Xrotation
				End Site
				{
					OFFSET 0.000000 0.000000 0.000000
				}
			}
		}
	}
	JOINT LeftUpLeg
	{
		OFFSET 11.315661 -0.000000 0.000000
		CHANNELS 3 Zrotation Yrotation Xrotation
		JOINT LeftLeg
		{
			OFFSET -0.000000 -38.200325 -0.000000
			CHANNELS 3 Zrotation Yrotation Xrotation
			JOINT LeftFoot
			{
				OFFSET 0.000000 -39.900856 -0.000000
				CHANNELS 3 Zrotation Yrotation Xrotation
				JOINT LeftToeBase
				{
					OFFSET -0.000000 -0.000000 15.261641
					CHANNELS 3 Zrotation Yrotation Xrotation
					JOINT LeftToeBaseEnd
					{
						OFFSET 0.000000 -0.000000 7.539996
						CHANNELS 3 Zrotation Yrotation Xrotation
						End Site
						{
							OFFSET 0.000000 0.000000 0.000000
						}
					}
				}
				JOINT LeftLegEnd
				{
					OFFSET 0.000000 0.000000 0.000000
					CHANNELS 3 Zrotation Yrotation Xrotation
					End Site
					{
						OFFSET 0.000000 0.000000 0.000000
					}
				}
			}
			JOINT LeftUpLegEnd
			{
				OFFSET 0.000000 0.000000 0.000000
				CHANNELS 3 Zrotation Yrotation Xrotation
				End Site
				{
					OFFSET 0.000000 0.000000 0.000000
				}
			}
		}
	}
}
MOTION
Frames: 4
Frame Time: 0.016667
0.564741 88.886162 3.274051 0.110539 -1.918814 -10.331066 0.894084 0.165064 6.552562 -0.991238 0.253899 2.259921 -0.057937 -0.272927 4.242987 -1.614806 0.239213 4.201638 0.322495 0.505471 3.712399 -0.076429 0.199929 -3.913694 -0.307726 -0.848673 -20.305258 0.000000 0.000000 0.000000 91.188622 -0.274116 9.332006 66.923714 -22.517874 0.223589 -0.778789 18.075979 61.860828 -1.867700 5.182418 -2.248794 17.410509 30.885389 64.378189 -5.810268 -7.497898 -13.273517 -4.214440 -4.917108 -9.102889 0.000000 0.000000 0.000000 -6.003517 -7.742040 10.296753 1.350968 0.496587 0.594841 0.991592 0.067040 0.620932 0.000000 0.000000 0.000000 -5.895329 -2.346413 5.706765 -0.050199 0.502542 0.231816 0.720441 0.007101 0.193587 0.000000 0.000000 0.000000 -5.638094 5.381701 0.143883 -0.151686 -1.003323 -0.408231 0.007107 -0.024538 -0.273884 0.000000 0.000000 0.000000 -6.798172 13.560553 -5.798860 -0.329328 -1.936014 -1.111659 -0.295846 0.019326 -0.958046 0.000000 0.000000 0.000000 0.000000 0.000000 0.000000 0.000000 0.000000 0.000000 -87.435379 0.097643 4.257496 -74.116852 11.238978 -9.813532 -0.372776 -14.712134 75.783020 -6.999960 -12.439381 -7.110558 -16.752935 -31.153782 65.055084 5.044156 6.239360 -11.271791 3.630810 4.247646 -7.857558 0.000000 0.000000 0.000000 5.231899 -9.870549 14.914641 -1.300597 0.557255 -0.326407 -1.246682 0.085632 -0.384764 0.000000 0.000000 0.000000 5.888003 -4.576931 8.733380 -1.165261 0.525311 -0.171684 -1.357866 0.023369 -0.139551 0.000000 0.000000 0.000000 3.666810 3.661382 1.052647 -1.801646 -1.034314 0.319494 -1.930143 -0.045594 0.240012 0.000000 0.000000 0.000000 -0.520372 12.803198 -6.747959 -3.256976 -2.029411 1.276211 -2.884367 0.005950 1.178595 0.000000 0.000000 0.000000 0.000000 0.000000 0.000000 0.000000 0.000000 0.000000 -1.733238 -8.466273 13.789918 -0.078689 -0.681008 5.892416 -1.953196 -6.796746 17.837818 -0.883315 0.823967 -18.812008 0.000000 0.000000 0.000000 0.000000 0.000000 0.000000 0.000000 0.000000 0.000000 -2.027455 -5.381959 9.071808 0.068531 0.336556 10.497280 4.068932 -0.728192 17.104628 0.277775 -0.397343 -21.397741 0.000000 0.000000 0.000000 0.000000 0.000000 0.000000 0.000000 0.000000 0.000000 
0.570014 88.884964 3.259182 0.131175 -1.914101 -10.353460 0.895333 0.170018 6.508069 -1.027688 0.271938 2.315676 -0.052127 -0.262092 4.200987 -1.664664 0.244146 4.308393 0.403872 0.363817 3.906586 -0.095369 0.078091 -3.842354 -0.278298 -0.850430 -20.388554 0.000000 0.000000 0.000000 91.025902 -0.263955 9.193519 67.082085 -21.956354 -0.067905 -0.820240 17.918226 63.753010 -3.285707 4.211474 -2.226949 17.088373 31.004843 64.720406 -5.394825 -6.874300 -12.258544 -3.904640 -4.502257 -8.379495 0.000000 0.000000 0.000000 -8.617020 -7.286517 11.178521 0.939661 0.518171 0.474297 0.578804 0.087269 0.509382 0.000000 0.000000 0.000000 -8.508926 -1.897876 6.223262 -0.450992 0.512765 0.179961 0.332749 0.015970 0.149987 0.000000 0.000000 0.000000 -8.508155 5.862153 0.175185 -0.639230 -1.018936 -0.342014 -0.469522 -0.036331 -0.222166 0.000000 0.000000 0.000000 -9.799104 14.007427 -6.172123 -0.899252 -1.968810 -0.937738 -0.835388 -0.011475 -0.810367 0.000000 0.000000 0.000000 0.000000 0.000000 0.000000 0.000000 0.000000 0.000000 -87.355423 0.113741 4.170150 -74.054947 10.815346 -9.790191 -0.331100 -14.614688 77.156815 -6.285775 -12.314370 -6.721700 -16.464758 -31.271433 65.384262 4.655578 5.660206 -10.318499 3.338368 3.857131 -7.185337 0.000000 0.000000 0.000000 7.394998 -10.291319 16.127710 -1.166970 0.576347 -0.239487 -1.107013 0.103408 -0.308683 0.000000 0.000000 0.000000 8.039702 -4.972820 9.609832 -1.015933 0.534466 -0.134187 -1.234850 0.031530 -0.108436 0.000000 0.000000 0.000000 5.914151 3.280916 1.497526 -1.577627 -1.047803 0.267838 -1.712110 -0.056393 0.198784 0.000000 0.000000 0.000000 1.565910 12.492277 -6.652615 -2.999626 -2.058978 1.125293 -2.613893 -0.019607 1.042416 0.000000 0.000000 0.000000 0.000000 0.000000 0.000000 0.000000 0.000000 0.000000 -1.740378 -8.406960 13.764992 -0.078719 -0.682071 5.939611 -1.977821 -6.740903 17.818768 -0.881262 0.824668 -18.830992 0.000000 0.000000 0.000000 0.000000 0.000000 0.000000 0.000000 0.000000 0.000000 -2.029925 -5.404099 9.125359 0.069350 0.338683 10.518647 4.046405 -0.783539 17.091684 0.270896 -0.396732 -21.426279 0.000000 0.000000 0.000000 0.000000 0.000000 0.000000 0.000000 0.000000 0.000000 
0.569139 88.884773 3.240054 0.145109 -1.914634 -10.383129 0.895362 0.176034 6.478460 -1.057220 0.289097 2.376984 -0.056617 -0.264028 4.158666 -1.705976 0.238588 4.416455 0.534212 0.182640 4.062980 -0.104048 -0.055098 -3.773828 -0.244727 -0.856203 -20.440216 0.000000 0.000000 0.000000 90.881355 -0.252062 9.057282 67.290596 -21.400488 -0.345726 -0.856139 17.744577 65.578278 -4.896314 3.149891 -2.120217 16.809767 31.110645 65.022316 -5.027245 -6.329229 -11.371122 -3.632521 -4.141969 -7.746164 0.000000 0.000000 0.000000 -10.918624 -6.878315 11.884811 0.723710 0.530861 0.385568 0.359899 0.098872 0.427361 0.000000 0.000000 0.000000 -10.819146 -1.502054 6.630756 -0.655537 0.519322 0.141159 0.138585 0.021772 0.117710 0.000000 0.000000 0.000000 -11.044754 6.277037 0.186778 -0.908702 -1.028271 -0.293808 -0.728917 -0.043513 -0.183688 0.000000 0.000000 0.000000 -12.444496 14.377664 -6.493981 -1.251910 -1.984477 -0.814047 -1.159808 -0.028710 -0.703461 0.000000 0.000000 0.000000 0.000000 0.000000 0.000000 0.000000 0.000000 0.000000 -87.311905 0.136022 4.116370 -73.990158 10.469551 -9.803641 -0.282844 -14.484679 78.490997 -5.303746 -12.074962 -6.331938 -16.199556 -31.379309 65.687744 4.302064 5.126451 -9.440228 3.070160 3.495723 -6.564809 0.000000 0.000000 0.000000 9.409087 -10.670333 17.174597 -1.143236 0.590542 -0.170878 -1.076641 0.117120 -0.248055 0.000000 0.000000 0.000000 10.023316 -5.331520 10.377447 -0.990259 0.541346 -0.104904 -1.229607 0.038014 -0.083927 0.000000 0.000000 0.000000 7.946019 2.934985 1.895309 -1.522273 -1.057554 0.229191 -1.662543 -0.064537 0.167624 0.000000 0.000000 0.000000 3.405822 12.210376 -6.564196 -2.920248 -2.076181 1.012396 -2.524532 -0.036143 0.937648 0.000000 0.000000 0.000000 0.000000 0.000000 0.000000 0.000000 0.000000 0.000000 -1.729714 -8.345561 13.751967 -0.078692 -0.684039 5.978060 -2.012743 -6.699111 17.800255 -0.878895 0.826679 -18.844376 0.000000 0.000000 0.000000 0.000000 0.000000 0.000000 0.000000 0.000000 0.000000 -2.015442 -5.420917 9.198030 0.069685 0.339654 10.518022 4.016017 -0.821580 17.084969 0.264805 -0.395591 -21.451700 0.000000 0.000000 0.000000 0.000000 0.000000 0.000000 0.000000 0.000000 0.000000 
0.560831 88.885757 3.217488 0.149905 -1.925491 -10.417978 0.890058 0.179868 6.468677 -1.078081 0.302234 2.448511 -0.062888 -0.282248 4.102998 -1.732512 0.225336 4.516287 0.699131 -0.014613 4.171034 -0.105419 -0.186427 -3.714879 -0.209699 -0.861187 -20.450827 0.000000 0.000000 0.000000 90.769821 -0.241302 8.939838 67.510040 -20.828243 -0.561598 -0.881792 17.582415 67.302933 -6.530100 2.130489 -1.911793 16.596935 31.194637 65.261086 -4.737305 -5.903497 -10.678982 -3.419875 -3.864298 -7.253849 0.000000 0.000000 0.000000 -12.755269 -6.546887 12.368016 0.635464 0.538563 0.323967 0.265549 0.105781 0.370841 0.000000 0.000000 0.000000 -12.656447 -1.187522 6.906649 -0.734484 0.523798 0.114196 0.065433 0.025831 0.095710 0.000000 0.000000 0.000000 -13.026697 6.595705 0.181961 -1.033595 -1.033664 -0.262333 -0.844883 -0.047667 -0.157481 0.000000 0.000000 0.000000 -14.478197 14.648359 -6.746993 -1.439307 -1.990041 -0.733907 -1.328855 -0.037965 -0.632383 0.000000 0.000000 0.000000 0.000000 0.000000 0.000000 0.000000 0.000000 0.000000 -87.298218 0.156444 4.100774 -73.955177 10.234628 -9.899097 -0.232221 -14.335550 79.791611 -4.176634 -11.770724 -5.960519 -15.962202 -31.473434 65.956161 3.996825 4.648687 -8.660523 2.834672 3.170897 -6.012824 0.000000 0.000000 0.000000 11.227789 -10.993445 18.001221 -1.146878 0.602101 -0.117058 -1.076231 0.129110 -0.199939 0.000000 0.000000 0.000000 11.793087 -5.641824 10.996967 -1.002349 0.546786 -0.082819 -1.254900 0.043658 -0.065169 0.000000 0.000000 0.000000 9.708076 2.630305 2.219048 -1.532324 -1.064929 0.201351 -1.677108 -0.071214 0.145030 0.000000 0.000000 0.000000 4.952695 11.960276 -6.507007 -2.916481 -2.086703 0.931023 -2.514142 -0.048565 0.860985 0.000000 0.000000 0.000000 0.000000 0.000000 0.000000 0.000000 0.000000 0.000000 -1.695871 -8.279092 13.753703 -0.078553 -0.687414 5.999352 -2.063671 -6.659744 17.787106 -0.877019 0.829794 -18.853029 0.000000 0.000000 0.000000 0.000000 0.000000 0.000000 0.000000 0.000000 0.000000 -1.980586 -5.421144 9.286411 0.069374 0.338607 10.488647 3.979718 -0.820046 17.092306 0.259476 -0.394148 -21.467707 0.000000 0.000000 0.000000 0.000000 0.000000 0.000000 0.000000 0.000000 0.000000 
